<svg xmlns="http://www.w3.org/2000/svg" enable-background="new 0 0 512 512" viewBox="0 0 512 512" id="agriculture">
  <path fill="#ffd15b" d="M432.603 317.326v6.713c0-10.144 8.404-18.326 18.63-17.962 9.74.346 17.319 8.647 17.319 18.393v6.714c0-7.865 5.053-14.545 12.088-16.983 1.885-.651 3.891-.991 5.886-.991 9.926 0 17.974 8.047 17.974 17.973V38.753c0-13.807-11.193-25-25-25h-48.014v297.269C432.198 313.002 432.603 315.123 432.603 317.326zM189.516 138.355c-.056-20.524 10.209-38.667 25.906-49.517 2.354-1.627 5.509-1.636 7.871-.021 15.757 10.764 26.12 28.85 26.176 49.375.056 20.524-10.209 38.667-25.906 49.517-2.354 1.627-5.508 1.636-7.871.022C199.936 176.966 189.572 158.88 189.516 138.355zM236.936 207.365c14.473-14.553 34.56-20.123 53.332-16.695 2.815.514 5.052 2.738 5.581 5.551 3.53 18.753-1.93 38.87-16.404 53.422-14.473 14.552-34.56 20.123-53.332 16.695-2.815-.514-5.052-2.739-5.581-5.551C217.002 242.034 222.463 221.917 236.936 207.365z"></path>
  <path fill="#ffd15b" d="M202.05,207.365c-14.473-14.553-34.56-20.123-53.332-16.695c-2.815,0.514-5.052,2.738-5.581,5.551
			c-3.53,18.753,1.93,38.87,16.404,53.422c14.473,14.552,34.56,20.123,53.332,16.695c2.815-0.514,5.052-2.739,5.581-5.551
			C221.984,242.034,216.523,221.917,202.05,207.365z"></path>
  <path d="M512,38.753c0-17.92-14.58-32.5-32.5-32.5H112.164c-4.142,0-7.5,3.358-7.5,7.5s3.358,7.5,7.5,7.5h311.822v271.959
				c-2.621-1.042-5.456-1.669-8.436-1.775c-3.994-0.144-7.872,0.627-11.396,2.218v-51.375c0-11.437-7.577-21.136-17.974-24.346
				V87.612c0-4.142-3.358-7.5-7.5-7.5c-4.142,0-7.5,3.358-7.5,7.5v130.323c-10.397,3.21-17.974,12.909-17.974,24.346v91.168
				l-10.496,2.771c-7.075,1.867-12.327,7.754-13.379,14.997l-2.686,18.504h-90.692c-4.142,0-7.5,3.358-7.5,7.5
				c0,4.142,3.358,7.5,7.5,7.5h88.515l-3.215,22.15c-1.451,10.002,3.165,19.898,11.761,25.213l32.776,20.267v35.897
				c0,9.649,7.851,17.5,17.5,17.5h83.269c9.649,0,17.5-7.85,17.5-17.5l0-32.625l15.305-10.76C507.277,439.3,512,430.207,512,420.537
				V38.753z M479.5,21.253c9.649,0,17.5,7.851,17.5,17.5v269.219c-3.198-1.449-6.742-2.262-10.474-2.262
				c-2.836,0-5.641,0.472-8.342,1.405c-2.254,0.781-4.346,1.859-6.238,3.18c-4.365-6.827-11.82-11.406-20.446-11.713
				c-4.419-0.157-8.693,0.819-12.513,2.777V21.253H479.5z M368.206,242.28c0-5.775,4.699-10.474,10.474-10.474
				c5.775,0,10.474,4.699,10.474,10.474v74.614c0,4.142,3.358,7.5,7.5,7.5c4.142,0,7.5-3.358,7.5-7.5
				c0-2.868,1.137-5.545,3.202-7.538c2.063-1.992,4.774-3.03,7.662-2.93c3.907,0.139,7.294,2.598,8.969,6.061v1.838
				c0,1.44,0.413,2.781,1.117,3.923v5.79c0,4.142,3.358,7.5,7.5,7.5c4.142,0,7.5-3.358,7.5-7.5c0-2.868,1.137-5.546,3.202-7.538
				c2.064-1.992,4.78-3.024,7.662-2.93c5.561,0.198,10.085,5.087,10.085,10.898v6.713c0,4.142,3.358,7.5,7.5,7.5
				c4.142,0,7.5-3.358,7.5-7.5c0-4.46,2.831-8.436,7.037-9.894c1.1-0.38,2.288-0.581,3.438-0.581
				c5.775,0,10.474,4.699,10.474,10.474v89.352c0,4.792-2.341,9.299-6.261,12.055l-16.367,11.506
				c-3.326,2.338-5.311,6.161-5.311,10.226l0,33.923c0,1.378-1.122,2.5-2.5,2.5h-83.269c-1.378,0-2.5-1.122-2.5-2.5v-37.291
				c0-4.363-2.215-8.337-5.926-10.631l-33.961-20.999c-3.512-2.171-5.397-6.215-4.805-10.301l8.078-55.654
				c0.185-1.28,1.113-2.319,2.362-2.649l6.668-1.76v41.075c0,4.142,3.358,7.5,7.5,7.5c4.142,0,7.5-3.358,7.5-7.5V242.28z"></path>
  <path d="M467.993 234.426c4.142 0 7.5-3.358 7.5-7.5v-62.878c0-4.142-3.358-7.5-7.5-7.5-4.142 0-7.5 3.358-7.5 7.5v62.878C460.493 231.068 463.851 234.426 467.993 234.426zM236.922 274.818c17.803 0 35.066-7.041 47.842-19.886 6.65-6.686 11.713-14.582 15.033-23.125h14.279c9.649 0 17.5-7.85 17.5-17.5V104.16c9.734-3.168 16.791-12.324 16.791-23.101 0-13.394-10.897-24.291-24.291-24.291-13.394 0-24.291 10.897-24.291 24.291 0 10.777 7.057 19.933 16.791 23.101v110.146c0 1.379-1.122 2.5-2.5 2.5h-10.358c1.02-7.208.886-14.624-.498-21.975-1.099-5.836-5.763-10.474-11.604-11.539-21.893-3.999-44.322 3.023-59.997 18.784-1.673 1.682-3.24 3.445-4.71 5.271l-.027-12.869c.322-.186.637-.386.946-.6 18.309-12.654 29.203-33.479 29.142-55.707-.061-22.227-11.068-42.992-29.445-55.546-4.903-3.351-11.481-3.333-16.367.044-16.203 11.199-26.592 28.799-28.727 48.105h-69.018c-1.378 0-2.5-1.122-2.5-2.5V104.16c9.734-3.168 16.791-12.324 16.791-23.101 0-13.394-10.897-24.291-24.291-24.291-13.395 0-24.291 10.897-24.291 24.291 0 10.777 7.057 19.933 16.791 23.101v24.113c0 9.649 7.851 17.5 17.5 17.5h69.038c2.19 19.374 12.69 37 29.01 48.149.137.094.28.175.42.263l.027 12.949c-1.421-1.751-2.932-3.442-4.541-5.06-15.674-15.76-38.104-22.783-59.997-18.784-5.842 1.066-10.505 5.704-11.605 11.54-4.117 21.872 2.782 44.339 18.457 60.099 1.778 1.788 3.652 3.451 5.593 5.011v26.866c0 1.378-1.122 2.5-2.5 2.5H96.514c-3.168-9.734-12.324-16.791-23.101-16.791-13.395 0-24.292 10.897-24.292 24.291 0 13.394 10.897 24.291 24.292 24.291 10.777 0 19.932-7.057 23.101-16.791h60.802c9.649 0 17.5-7.851 17.5-17.5v-17.755c8.542 3.769 17.815 5.764 27.249 5.764 3.317 0 6.654-.259 9.984-.756l.061 29.315c.009 4.137 3.365 7.484 7.499 7.484.005 0 .011 0 .016 0 4.142-.009 7.493-3.374 7.484-7.516l-.061-29.266C230.342 274.565 233.641 274.818 236.922 274.818zM324.075 71.769c5.123 0 9.291 4.168 9.291 9.291 0 5.123-4.168 9.291-9.291 9.291-5.123 0-9.291-4.168-9.291-9.291C314.784 75.937 318.952 71.769 324.075 71.769zM103.413 71.769c5.123 0 9.291 4.168 9.291 9.291 0 5.123-4.168 9.291-9.291 9.291-5.123 0-9.292-4.168-9.292-9.291C94.122 75.937 98.29 71.769 103.413 71.769zM73.413 306.1c-5.123 0-9.291-4.168-9.291-9.291 0-5.123 4.168-9.291 9.291-9.291 5.123 0 9.291 4.168 9.291 9.291C82.704 301.932 78.536 306.1 73.413 306.1zM242.254 212.654c12.1-12.166 29.377-17.636 46.293-14.673 3.055 16.897-2.32 34.207-14.42 46.372-12.1 12.167-29.383 17.636-46.293 14.673-.565-3.125-.838-6.264-.837-9.382l-.001-.223C227.059 235.759 232.446 222.516 242.254 212.654zM197.017 138.335c-.047-17.159 8.304-33.245 22.359-43.109 14.108 9.788 22.548 25.828 22.594 42.987.047 17.159-8.305 33.246-22.359 43.109C205.502 171.534 197.063 155.493 197.017 138.335zM211.152 259.027c-16.913 2.964-34.193-2.506-46.293-14.673-12.101-12.167-17.476-29.476-14.42-46.372 16.91-2.962 34.193 2.506 46.293 14.673C208.832 224.82 214.207 242.13 211.152 259.027zM312.324 295.861h-49.571c-4.142 0-7.5 3.358-7.5 7.5 0 4.142 3.358 7.5 7.5 7.5h49.571c4.142 0 7.5-3.358 7.5-7.5C319.824 299.219 316.466 295.861 312.324 295.861zM312.324 324.263h-49.571c-4.142 0-7.5 3.358-7.5 7.5s3.358 7.5 7.5 7.5h49.571c4.142 0 7.5-3.358 7.5-7.5S316.466 324.263 312.324 324.263z"></path>
  <path d="M203.267,369.72H32.5c-9.649,0-17.5-7.851-17.5-17.5V38.753c0-9.649,7.851-17.5,17.5-17.5h46.977
				c4.142,0,7.5-3.358,7.5-7.5s-3.358-7.5-7.5-7.5H32.5c-17.92,0-32.5,14.58-32.5,32.5V352.22c0,17.92,14.58,32.5,32.5,32.5h170.767
				c4.142,0,7.5-3.358,7.5-7.5C210.767,373.078,207.409,369.72,203.267,369.72z"></path>
</svg>
