<svg xmlns="http://www.w3.org/2000/svg" viewBox="0 0 512 512" id="risk-management">
  <path fill-rule="evenodd" d="m298.458 39.063 96.277 166.756c7.915 13.71 7.915 30.256 0 43.966s-22.245 21.983-38.075 21.983H164.106c-15.831 0-30.16-8.273-38.075-21.983-7.915-13.71-7.915-30.256 0-43.966l96.277-166.756c7.915-13.71 22.244-21.983 38.075-21.983 15.831 0 30.16 8.273 38.075 21.983zM493.83 378.78 321.86 485.236c-15.756 9.702-33.049 12.13-51.405 7.212L127.82 454.229a8.91 8.91 0 0 0-6.775.889l-60.776 35.088c-4.961 2.864-11.342 1.154-14.206-3.807L1.389 409.005c-2.86-4.956-1.158-11.329 3.793-14.197l120.648-69.89c18.198-10.544 37.908-19.372 58.686-12.634 6.159 1.995 13.487 4.528 21.241 7.207 25.832 8.918 57.981 20.02 91.019 27.264 5.133 1.126 9.544 4.353 12.418 9.091 3.169 5.201 4.085 11.539 2.521 17.388-3.09 11.545-14.992 18.43-26.542 15.356-.01-.005-.026-.005-.032-.01l-109.975-29.47c-4.77-1.274-9.665 1.547-10.939 6.312-1.284 4.764 1.553 9.66 6.317 10.934l109.976 29.469c24.673 6.607 45.025 7.76 70.209-6.907l91.842-53.497c34.991-20.373 59.154-15.903 66.787-3.122 5.897 9.775 2.422 25.442-15.528 36.481zM260.383 210.393c-8.144 0-14.745 6.602-14.745 14.745 0 8.144 6.602 14.745 14.745 14.745 8.144 0 14.745-6.601 14.745-14.745 0-8.143-6.602-14.745-14.745-14.745zm0-26.321c6.194 0 11.279-4.905 11.502-11.094l2.909-80.569c.117-3.241-.967-6.072-3.218-8.406-2.251-2.334-5.041-3.519-8.284-3.519h-5.819c-3.243 0-6.033 1.186-8.284 3.519-2.251 2.334-3.335 5.165-3.218 8.406l2.91 80.569c.223 6.19 5.308 11.095 11.502 11.094z" clip-rule="evenodd"></path>
</svg>
