<svg xmlns="http://www.w3.org/2000/svg" viewBox="0 0 70 70" id="leaf">
  <path d="M62.5 45.8C62.1 31.1 43.2 9.4 37.4 3.1 36.8 2.4 35.9 2 35 2c-.9 0-1.8.4-2.4 1.1-5.8 6.3-24.7 28-25.1 42.7-.2 7.4 2.7 13.2 8.2 16.2 5.4 3 12.5 2.8 18.3-.3V67c0 .6.4 1 1 1 .5 0 1-.4 1-1v-5.4c5.6 3 12.8 3.4 18.3.3 5.5-3 8.4-8.7 8.2-16.1zm-15.3.3L36 54.8v-2.5l9.9-7.7c.4-.3 1.1-.3 1.4.2.4.4.3 1-.1 1.3zM36 39.8l8.1-6.3c.4-.3 1.1-.3 1.4.2.3.4.3 1.1-.2 1.4L36 42.3v-2.5zM43.3 24 36 29.7v-2.5l6.1-4.8c.4-.3 1.1-.3 1.4.2.3.4.3 1-.2 1.4zM16.7 60.2c-4.8-2.7-7.4-7.8-7.2-14.4C9.9 31.9 28.3 10.7 34 4.5v22.7l-6.1-4.8c-.4-.3-1.1-.3-1.4.2-.3.4-.3 1.1.2 1.4l7.3 5.7v10.1l-8.1-6.3c-.4-.3-1.1-.3-1.4.2-.3.4-.3 1.1.2 1.4l9.3 7.3v10l-9.9-7.8c-.4-.3-1.1-.3-1.4.2-.3.4-.3 1.1.2 1.4L34 54.8v4.5c-5.4 3.4-12.3 3.7-17.3.9z"></path>
</svg>
