<svg xmlns="http://www.w3.org/2000/svg" viewBox="0 0 64 64" id="leaf">
  <polygon fill="#22c765" points="6.34 22.95 31.11 32.62 30.28 37.91 17.91 36.29 8.7 30.99 5.75 25.74 6.34 22.95"></polygon>
  <polygon fill="#22c765" points="32.91 29.09 23.21 6.34 26.96 6.34 33.36 10.42 38.25 20.7 38.25 30.56 32.91 29.09"></polygon>
  <path d="M57.33,36.3l-17.99-6.22c.39-1.64.51-3.55.29-5.61-.26-2.51-.98-5.2-2.07-7.77-1.67-3.91-4.06-7.25-6.74-9.41-1.35-1.09-2.71-1.82-4.04-2.19-1.47-.4-2.84-.34-4.07.19-.25.11-.45.31-.55.56-.1.25-.1.53,0,.78l9.71,22.79c-.34.22-.67.47-.96.77-.32.32-.59.68-.82,1.07L6.9,21.92c-.25-.1-.53-.1-.78,0-.25.11-.45.31-.55.56-.5,1.24-.53,2.61-.1,4.07.39,1.33,1.16,2.67,2.27,4,2.21,2.64,5.6,4.96,9.54,6.55,2.62,1.05,5.34,1.72,7.88,1.92.56.04,1.1.07,1.63.07,1.46,0,2.81-.17,4.01-.49l6.23,18c.31.9,1.16,1.47,2.07,1.47.24,0,.48-.04.71-.12l3.9-1.35c.55-.19,1-.59,1.25-1.11s.29-1.12.1-1.67l-5.02-14.5,14.5,5.02c.24.08.48.12.71.12.91,0,1.75-.57,2.07-1.47l1.35-3.9h0c.39-1.14-.21-2.39-1.35-2.78ZM36.98,37.31s-.08.04-.13.07c-.16.09-.32.18-.48.25-.02.01-.05.01-.08.02-1.04.4-2.22.32-3.2-.25-.03-.02-.05-.04-.08-.05-.17-.11-.34-.22-.49-.36-.05-.05-.11-.1-.17-.16-.06-.06-.11-.12-.17-.18,0,0,0,0,0,0-.41-.46-.67-1.01-.81-1.58-.17-.7-.13-1.45.14-2.16.18-.48.47-.91.83-1.28s.76-.62,1.21-.81c.2-.08.41-.14.62-.18.06-.01.11-.02.17-.03.16-.03.33-.04.49-.05.05,0,.1,0,.15,0,.2,0,.41.02.61.05.02,0,.04.01.06.02.18.04.35.08.52.14.06.02.11.04.17.07.14.06.28.12.41.2.05.03.1.06.15.09.17.11.34.23.5.37,0,0,0,0,0,0,.05.04.09.09.14.13.05.05.11.11.16.17,0,0,0,0,0,0,.63.72.94,1.62.92,2.52-.02.9-.37,1.79-1.04,2.48,0,0,0,0,0,0-.01.01-.02.02-.03.03,0,0,0,0,0,0-.01.01-.02.02-.03.03,0,0,0,0,0,0h0s-.1.08-.15.12c-.13.11-.26.23-.4.32ZM35.68,17.5c1.75,4.1,2.4,8.4,1.8,11.59,0,0-.01,0-.02,0-.14-.07-.29-.12-.43-.17-.11-.04-.21-.09-.33-.13-.19-.06-.39-.1-.59-.14-.07-.01-.13-.04-.2-.05,0,0-.01,0-.02,0-.28-.05-.57-.07-.85-.07-.02,0-.05,0-.07,0-.21,0-.42.01-.62.03-.02,0-.04,0-.07.01-.17.02-.34.04-.51.08L24.51,6.91c3.54-.39,8.41,4.11,11.17,10.59ZM18.04,35.21c-6.54-2.63-11.14-7.41-10.81-10.95l22.12,8.9c-.01.06,0,.11-.02.17-.04.23-.06.45-.07.68,0,.09,0,.18,0,.27,0,.31.02.62.07.92.05.26.11.52.19.78.03.08.06.16.09.23.06.17.12.34.2.5,0,0,0,.01,0,.02-3.2.71-7.56.16-11.78-1.53ZM43.13,54.59s-.03.06-.08.07l-3.9,1.35c-.07.03-.15-.01-.18-.09l-5.6-16.2c.11.03.23.05.35.07.12.03.23.05.35.07.22.04.45.05.68.06.08,0,.15.02.23.02.04,0,.09,0,.13,0h0c.32,0,.64-.05.95-.11.08-.02.16-.03.24-.05.29-.07.58-.16.86-.27.01,0,.03,0,.04-.01.22-.09.44-.2.65-.32l5.29,15.3s0,.08,0,.11ZM55.4,42.31c-.03.07-.11.11-.18.09l-15.3-5.29c.12-.21.23-.43.32-.65,0-.02.01-.03.02-.05.11-.28.2-.56.27-.86.02-.08.04-.16.05-.24.06-.31.1-.63.11-.95,0,0,0,0,0,0h0c0-.33-.02-.66-.07-.99-.02-.1-.04-.2-.06-.3-.03-.15-.05-.3-.09-.44l16.2,5.6c.07.03.11.11.09.18l-1.35,3.9Z"></path>
</svg>
