<svg xmlns="http://www.w3.org/2000/svg" width="24" height="24" fill="none" viewBox="0 0 24 24" id="investment-model">
  <path fill="#000" fill-rule="evenodd" d="M16.7262 15.7707C16.8229 15.8191 16.9014 15.8975 16.9498 15.9943C17.4683 17.0313 17.265 18.2838 16.4452 19.1037L15.1457 20.4032C14.3259 21.223 13.0734 21.4263 12.0363 20.9078C11.9395 20.8594 11.8611 20.7809 11.8127 20.6841C11.2942 19.6471 11.4974 18.3946 12.3173 17.5747L13.6168 16.2753C14.4366 15.4554 15.6891 15.2522 16.7262 15.7707ZM16.1236 16.5969C15.5053 16.3615 14.799 16.5072 14.3239 16.9824L13.0244 18.2818C12.5492 18.757 12.4035 19.4633 12.6389 20.0816C13.2572 20.317 13.9634 20.1712 14.4386 19.6961L15.7381 18.3966C16.2132 17.9214 16.359 17.2152 16.1236 16.5969Z" clip-rule="evenodd"></path>
  <path fill="#000" fill-rule="evenodd" d="M7.27384 15.7707C7.17707 15.8191 7.09861 15.8975 7.05023 15.9943 6.53171 17.0313 6.73496 18.2838 7.55482 19.1037L8.85429 20.4032C9.67414 21.223 10.9266 21.4263 11.9637 20.9078 12.0605 20.8594 12.1389 20.7809 12.1873 20.6841 12.7058 19.6471 12.5026 18.3946 11.6827 17.5747L10.3832 16.2753C9.56339 15.4554 8.31089 15.2522 7.27384 15.7707zM7.87642 16.5969C8.4947 16.3615 9.20098 16.5072 9.67614 16.9824L10.9756 18.2818C11.4508 18.757 11.5965 19.4633 11.3611 20.0816 10.7428 20.317 10.0366 20.1712 9.56139 19.6961L8.26193 18.3966C7.78677 17.9214 7.641 17.2152 7.87642 16.5969zM12 2.5C8.96243 2.5 6.5 4.96243 6.5 8 6.5 11.0376 8.96243 13.5 12 13.5 15.0376 13.5 17.5 11.0376 17.5 8 17.5 4.96243 15.0376 2.5 12 2.5zM5.5 8C5.5 4.41015 8.41015 1.5 12 1.5 15.5899 1.5 18.5 4.41015 18.5 8 18.5 11.5899 15.5899 14.5 12 14.5 8.41015 14.5 5.5 11.5899 5.5 8z" clip-rule="evenodd"></path>
  <path fill="#000" fill-rule="evenodd" d="M12 4.5C12.2761 4.5 12.5 4.72386 12.5 5V5.5H13C13.2761 5.5 13.5 5.72386 13.5 6 13.5 6.27614 13.2761 6.5 13 6.5H12C11.7239 6.5 11.5 6.72386 11.5 7V7.5H13C13.2761 7.5 13.5 7.72386 13.5 8V9C13.5 9.65311 13.0826 10.2087 12.5 10.4146V11C12.5 11.2761 12.2761 11.5 12 11.5 11.7239 11.5 11.5 11.2761 11.5 11V10.5H11C10.7239 10.5 10.5 10.2761 10.5 10 10.5 9.72386 10.7239 9.5 11 9.5H12C12.2761 9.5 12.5 9.27614 12.5 9V8.5H11C10.7239 8.5 10.5 8.27614 10.5 8V7C10.5 6.34689 10.9174 5.79127 11.5 5.58535V5C11.5 4.72386 11.7239 4.5 12 4.5zM12 13.5C12.2761 13.5 12.5 13.7239 12.5 14V20C12.5 20.2761 12.2761 20.5 12 20.5 11.7239 20.5 11.5 20.2761 11.5 20V14C11.5 13.7239 11.7239 13.5 12 13.5z" clip-rule="evenodd"></path>
</svg>
