<svg xmlns="http://www.w3.org/2000/svg" viewBox="0 0 64 64" id="building">
  <path d="M45 61H29a1 1 0 01-1-1V50a1 1 0 011-1H45a1 1 0 011 1V60A1 1 0 0145 61zM30 59H44V51H30zM23 46H21a3 3 0 01-3-3V41a3 3 0 013-3h2a3 3 0 013 3v2A3 3 0 0123 46zm-2-6a1 1 0 00-1 1v2a1 1 0 001 1h2a1 1 0 001-1V41a1 1 0 00-1-1zM33 46H31a3 3 0 01-3-3V41a3 3 0 013-3h2a3 3 0 013 3v2A3 3 0 0133 46zm-2-6a1 1 0 00-1 1v2a1 1 0 001 1h2a1 1 0 001-1V41a1 1 0 00-1-1zM23 28H21a3 3 0 01-3-3V23a3 3 0 013-3h2a3 3 0 013 3v2A3 3 0 0123 28zm-2-6a1 1 0 00-1 1v2a1 1 0 001 1h2a1 1 0 001-1V23a1 1 0 00-1-1zM13 28H11a3 3 0 01-3-3V23a3 3 0 013-3h2a3 3 0 013 3v2A3 3 0 0113 28zm-2-6a1 1 0 00-1 1v2a1 1 0 001 1h2a1 1 0 001-1V23a1 1 0 00-1-1zM33 28H31a3 3 0 01-3-3V23a3 3 0 013-3h2a3 3 0 013 3v2A3 3 0 0133 28zm-2-6a1 1 0 00-1 1v2a1 1 0 001 1h2a1 1 0 001-1V23a1 1 0 00-1-1zM53 46H51a3 3 0 01-3-3V41a3 3 0 013-3h2a3 3 0 013 3v2A3 3 0 0153 46zm-2-6a1 1 0 00-1 1v2a1 1 0 001 1h2a1 1 0 001-1V41a1 1 0 00-1-1zM51 28H49a3 3 0 01-3-3V23a3 3 0 013-3h2a3 3 0 013 3v2A3 3 0 0151 28zm-2-6a1 1 0 00-1 1v2a1 1 0 001 1h2a1 1 0 001-1V23a1 1 0 00-1-1zM51 18H49a3 3 0 01-3-3V13a3 3 0 013-3h2a3 3 0 013 3v2A3 3 0 0151 18zm-2-6a1 1 0 00-1 1v2a1 1 0 001 1h2a1 1 0 001-1V13a1 1 0 00-1-1zM43 46H41a3 3 0 01-3-3V41a3 3 0 011.5-2.59A2.92 2.92 0 0141 38h2a3 3 0 013 3v2A3 3 0 0143 46zm-2-6a1 1 0 00-.49.13A1 1 0 0040 41v2a1 1 0 00.5.87A1.09 1.09 0 0041 44h2a1 1 0 001-1V41a1 1 0 00-1-1z"></path>
  <path d="M14,61H4a1,1,0,0,1-1-1V14a1,1,0,0,1,1-1H40a1,1,0,0,1,1,1V34a1,1,0,0,1-1,1H15V60A1,1,0,0,1,14,61ZM5,59h8V34a1,1,0,0,1,1-1H39V15H5Z"></path>
  <path d="M60,35H40a1,1,0,0,1-1-1V4a1,1,0,0,1,1-1H60a1,1,0,0,1,1,1V34A1,1,0,0,1,60,35ZM41,33H59V5H41Z"></path>
  <path d="M60,61H14a1,1,0,0,1-1-1V34a1,1,0,0,1,1-1H60a1,1,0,0,1,1,1V60A1,1,0,0,1,60,61ZM15,59H59V35H15Z"></path>
</svg>
